<?xml version="1.0" encoding="UTF-8" standalone="no"?>
<!-- Created with Inkscape (http://www.inkscape.org/) -->

<svg
   xmlns:dc="http://purl.org/dc/elements/1.1/"
   xmlns:cc="http://creativecommons.org/ns#"
   xmlns:rdf="http://www.w3.org/1999/02/22-rdf-syntax-ns#"
   xmlns:svg="http://www.w3.org/2000/svg"
   xmlns="http://www.w3.org/2000/svg"
   xmlns:xlink="http://www.w3.org/1999/xlink"
   xmlns:sodipodi="http://sodipodi.sourceforge.net/DTD/sodipodi-0.dtd"
   xmlns:inkscape="http://www.inkscape.org/namespaces/inkscape"
   width="743.92157"
   height="509.48611"
   id="svg2"
   version="1.1"
   inkscape:version="0.48.5 r10040"
   sodipodi:docname="businessScenario.svg">
  <defs
     id="defs4">
    <marker
       inkscape:stockid="Arrow1Send"
       orient="auto"
       refY="0"
       refX="0"
       id="Arrow1Send"
       style="overflow:visible">
      <path
         id="path4773"
         d="M 0,0 5,-5 -12.5,0 5,5 0,0 z"
         style="fill-rule:evenodd;stroke:#000000;stroke-width:1pt"
         transform="matrix(-0.2,0,0,-0.2,-1.2,0)"
         inkscape:connector-curvature="0" />
    </marker>
    <marker
       inkscape:stockid="Arrow1Mend"
       orient="auto"
       refY="0"
       refX="0"
       id="Arrow1Mend"
       style="overflow:visible">
      <path
         id="path4767"
         d="M 0,0 5,-5 -12.5,0 5,5 0,0 z"
         style="fill-rule:evenodd;stroke:#000000;stroke-width:1pt"
         transform="matrix(-0.4,0,0,-0.4,-4,0)"
         inkscape:connector-curvature="0" />
    </marker>
    <marker
       inkscape:stockid="Arrow1Mstart"
       orient="auto"
       refY="0"
       refX="0"
       id="Arrow1Mstart"
       style="overflow:visible">
      <path
         id="path4764"
         d="M 0,0 5,-5 -12.5,0 5,5 0,0 z"
         style="fill-rule:evenodd;stroke:#000000;stroke-width:1pt"
         transform="matrix(0.4,0,0,0.4,4,0)"
         inkscape:connector-curvature="0" />
    </marker>
  </defs>
  <sodipodi:namedview
     id="base"
     pagecolor="#ffffff"
     bordercolor="#666666"
     borderopacity="1.0"
     inkscape:pageopacity="0.0"
     inkscape:pageshadow="2"
     inkscape:zoom="0.64"
     inkscape:cx="781.41164"
     inkscape:cy="-45.391197"
     inkscape:document-units="px"
     inkscape:current-layer="layer1"
     showgrid="false"
     inkscape:window-width="1918"
     inkscape:window-height="1059"
     inkscape:window-x="0"
     inkscape:window-y="19"
     inkscape:window-maximized="1"
     fit-margin-top="10"
     fit-margin-left="10"
     fit-margin-right="10"
     fit-margin-bottom="10">
    <inkscape:grid
       type="xygrid"
       id="grid3019"
       empspacing="5"
       visible="true"
       enabled="true"
       snapvisiblegridlinesonly="true"
       originx="-8.4650287px"
       originy="-435.72499px" />
  </sodipodi:namedview>
  <metadata
     id="metadata7">
    <rdf:RDF>
      <cc:Work
         rdf:about="">
        <dc:format>image/svg+xml</dc:format>
        <dc:type
           rdf:resource="http://purl.org/dc/dcmitype/StillImage" />
        <dc:title></dc:title>
      </cc:Work>
    </rdf:RDF>
  </metadata>
  <g
     inkscape:label="Layer 1"
     inkscape:groupmode="layer"
     id="layer1"
     transform="translate(-8.4650287,-107.15106)">
    <g
       transform="matrix(0.0507054,0,0,0.0507054,14.724904,54.409624)"
       id="g7"
       style="stroke:#000000;stroke-width:39.44353104;stroke-miterlimit:4;stroke-opacity:1;stroke-dasharray:none">
      <title
         id="title9">Layer 1</title>
      <g
         id="layer1-5"
         style="stroke:#000000;stroke-width:39.44353104;stroke-miterlimit:4;stroke-opacity:1;stroke-dasharray:none">
        <g
           id="g6444"
           style="stroke:#000000;stroke-width:39.44353104;stroke-miterlimit:4;stroke-opacity:1;stroke-dasharray:none">
          <path
             style="fill:#ffffff;fill-rule:nonzero;stroke:#000000;stroke-width:33.58841324;stroke-miterlimit:4;stroke-opacity:1;stroke-dasharray:none;stroke-dashoffset:0"
             inkscape:connector-curvature="0"
             stroke-miterlimit="4"
             d="m 3836.8348,2095.1578 c -732.2124,0 -1344.4922,547.4842 -1536.9326,1295.2865 -80.1119,-53.1238 -178.5029,-83.5777 -277.0421,-83.5777 -304.7364,0 -551.9997,289.9708 -551.9997,647.3413 0,3.6404 -0.052,7.1042 0,10.7294 -91.2851,-21.9322 -186.9957,-34.3341 -286.0641,-34.3341 -604.03117,0 -1094.240027,435.3143 -1094.240231,971.37 0,536.0562 490.209111,971.3701 1094.240231,971.3701 239.2406,0 460.2956,-68.8038 640.4417,-184.5459 107.5895,377.4956 411.2028,650.2027 769.14,650.2027 242.5458,0 460.0323,-125.2356 608.7247,-323.313 144.2511,88.4898 298.9465,154.3573 495.2748,139.4821 246.1456,-18.6495 472.023,-94.1465 641.0522,-248.9221 227.7688,277.2216 592.2635,472.2673 965.84,472.2673 458.2995,0 829.2678,-283.9343 1044.5367,-676.1265 32.4074,5.5692 65.6551,8.5836 99.4208,8.5836 364.5952,0 659.9608,-336.2542 659.9608,-751.0595 0,-414.8045 -295.3656,-751.7746 -659.9608,-751.7746 -65.2407,0 -128.3234,11.3954 -187.8629,31.473 -154.6632,-293.2461 -490.1975,-459.867 -825.8642,-505.713 -130.2304,-899.3731 -758.265,-1638.7398 -1598.6653,-1638.7396 z"
             id="path5530"
             sodipodi:nodetypes="scsscssscscscscsssccs" />
        </g>
      </g>
    </g>
    <g
       style="fill:#313131;fill-opacity:1;stroke:none"
       transform="matrix(0.29977242,0,0,0.29977242,332.69393,304.69658)"
       id="g4511">
      <path
         transform="translate(65.743417,305.39641)"
         d="m 627.81492,186.58707 c 0,56.02368 -45.41617,101.43985 -101.43986,101.43985 -56.02369,0 -101.43986,-45.41617 -101.43986,-101.43985 0,-56.02369 45.41617,-101.439861 101.43986,-101.439861 56.02369,0 101.43986,45.416171 101.43986,101.439861 z"
         sodipodi:ry="101.43986"
         sodipodi:rx="101.43986"
         sodipodi:cy="186.58707"
         sodipodi:cx="526.37506"
         id="path4513"
         style="fill:#313131;fill-opacity:1;stroke:none"
         sodipodi:type="arc" />
      <path
         sodipodi:nodetypes="csssssscsscccccccsscccccccccccccccc"
         inkscape:connector-curvature="0"
         id="path4515"
         d="m 593.27811,782.52583 c -19.25,0.15267 -37.7,0.10675 -41,-0.10206 -3.3,-0.20881 -13.65,-1.07253 -23,-1.91938 -9.35,-0.84685 -24.65,-2.67154 -34,-4.05488 -9.35,-1.38333 -23.75,-3.872 -32,-5.53038 -8.25,-1.65837 -20.85,-4.51467 -28,-6.34733 -7.15,-1.83265 -16.15,-4.38529 -20,-5.67252 l -7,-2.34042 0.19859,-11 c 0.10922,-6.05 0.69216,-15.725 1.29542,-21.5 l 1.09684,-10.5 2.96315,-14.80793 2.96315,-14.80793 5.51037,-16.69207 5.51038,-16.69207 7.39579,-15 7.39579,-15 6.90717,-10.5 c 3.79894,-5.775 9.63347,-13.875 12.96561,-18 l 6.05844,-7.5 11.6134,-11.25 11.6134,-11.25 1.15817,0 1.15817,0 9.09808,8.78357 9.09808,8.78357 8.7593,5.81483 8.75931,5.81483 8.74069,3.85548 8.7407,3.85549 9.43729,2.5241 9.43728,2.52411 10.56272,1.13825 17.46599,1.52177 c 1.91173,175.37667 -0.11768,0.79668 -0.90328,175.85097 z"
         style="fill:#313131;fill-opacity:1;stroke:none" />
      <path
         style="fill:#313131;fill-opacity:1;stroke:none"
         d="m 590.99723,782.90935 c 19.25,0.15267 37.7,0.10675 41,-0.10206 3.3,-0.20881 13.65,-1.07253 23,-1.91938 9.35,-0.84685 24.65,-2.67154 34,-4.05488 9.35,-1.38333 23.75,-3.872 32,-5.53038 8.25,-1.65837 20.85,-4.51467 28,-6.34733 7.15,-1.83265 16.15,-4.38529 20,-5.67252 l 7,-2.34042 -0.19859,-11 c -0.10922,-6.05 -0.69216,-15.725 -1.29542,-21.5 l -1.09684,-10.5 -2.96315,-14.80793 -2.96315,-14.80793 -5.51037,-16.69207 -5.51038,-16.69207 -7.39579,-15 -7.39579,-15 -6.90717,-10.5 c -3.79894,-5.775 -9.63347,-13.875 -12.96561,-18 l -6.05844,-7.5 -11.6134,-11.25 -11.6134,-11.25 -1.15817,0 -1.15817,0 -9.09808,8.78357 -9.09808,8.78357 -8.7593,5.81483 -8.75931,5.81483 -8.74069,3.85548 -8.7407,3.85549 -9.43729,2.5241 -9.43728,2.52411 -10.56272,1.13825 -17.46599,1.52177 c -1.91173,175.37667 0.11768,0.79668 0.90328,175.85097 z"
         id="path4517"
         inkscape:connector-curvature="0"
         sodipodi:nodetypes="csssssscsscccccccsscccccccccccccccc" />
    </g>
    <g
       id="g4503"
       transform="matrix(0.29977242,0,0,0.29977242,456.26113,304.69658)"
       style="fill:#acacac;fill-opacity:1;stroke:none">
      <path
         sodipodi:type="arc"
         style="fill:#acacac;fill-opacity:1;stroke:none"
         id="path4505"
         sodipodi:cx="526.37506"
         sodipodi:cy="186.58707"
         sodipodi:rx="101.43986"
         sodipodi:ry="101.43986"
         d="m 627.81492,186.58707 c 0,56.02368 -45.41617,101.43985 -101.43986,101.43985 -56.02369,0 -101.43986,-45.41617 -101.43986,-101.43985 0,-56.02369 45.41617,-101.439861 101.43986,-101.439861 56.02369,0 101.43986,45.416171 101.43986,101.439861 z"
         transform="translate(65.743417,305.39641)" />
      <path
         style="fill:#acacac;fill-opacity:1;stroke:none"
         d="m 593.27811,782.52583 c -19.25,0.15267 -37.7,0.10675 -41,-0.10206 -3.3,-0.20881 -13.65,-1.07253 -23,-1.91938 -9.35,-0.84685 -24.65,-2.67154 -34,-4.05488 -9.35,-1.38333 -23.75,-3.872 -32,-5.53038 -8.25,-1.65837 -20.85,-4.51467 -28,-6.34733 -7.15,-1.83265 -16.15,-4.38529 -20,-5.67252 l -7,-2.34042 0.19859,-11 c 0.10922,-6.05 0.69216,-15.725 1.29542,-21.5 l 1.09684,-10.5 2.96315,-14.80793 2.96315,-14.80793 5.51037,-16.69207 5.51038,-16.69207 7.39579,-15 7.39579,-15 6.90717,-10.5 c 3.79894,-5.775 9.63347,-13.875 12.96561,-18 l 6.05844,-7.5 11.6134,-11.25 11.6134,-11.25 1.15817,0 1.15817,0 9.09808,8.78357 9.09808,8.78357 8.7593,5.81483 8.75931,5.81483 8.74069,3.85548 8.7407,3.85549 9.43729,2.5241 9.43728,2.52411 10.56272,1.13825 17.46599,1.52177 c 1.91173,175.37667 -0.11768,0.79668 -0.90328,175.85097 z"
         id="path4507"
         inkscape:connector-curvature="0"
         sodipodi:nodetypes="csssssscsscccccccsscccccccccccccccc" />
      <path
         sodipodi:nodetypes="csssssscsscccccccsscccccccccccccccc"
         inkscape:connector-curvature="0"
         id="path4509"
         d="m 590.99723,782.90935 c 19.25,0.15267 37.7,0.10675 41,-0.10206 3.3,-0.20881 13.65,-1.07253 23,-1.91938 9.35,-0.84685 24.65,-2.67154 34,-4.05488 9.35,-1.38333 23.75,-3.872 32,-5.53038 8.25,-1.65837 20.85,-4.51467 28,-6.34733 7.15,-1.83265 16.15,-4.38529 20,-5.67252 l 7,-2.34042 -0.19859,-11 c -0.10922,-6.05 -0.69216,-15.725 -1.29542,-21.5 l -1.09684,-10.5 -2.96315,-14.80793 -2.96315,-14.80793 -5.51037,-16.69207 -5.51038,-16.69207 -7.39579,-15 -7.39579,-15 -6.90717,-10.5 c -3.79894,-5.775 -9.63347,-13.875 -12.96561,-18 l -6.05844,-7.5 -11.6134,-11.25 -11.6134,-11.25 -1.15817,0 -1.15817,0 -9.09808,8.78357 -9.09808,8.78357 -8.7593,5.81483 -8.75931,5.81483 -8.74069,3.85548 -8.7407,3.85549 -9.43729,2.5241 -9.43728,2.52411 -10.56272,1.13825 -17.46599,1.52177 c -1.91173,175.37667 0.11768,0.79668 0.90328,175.85097 z"
         style="fill:#acacac;fill-opacity:1;stroke:none" />
    </g>
    <g
       transform="matrix(0.29977242,0,0,0.29977242,396.36206,371.91552)"
       id="g4498">
      <path
         transform="translate(65.743417,305.39641)"
         d="m 627.81492,186.58707 c 0,56.02368 -45.41617,101.43985 -101.43986,101.43985 -56.02369,0 -101.43986,-45.41617 -101.43986,-101.43985 0,-56.02369 45.41617,-101.439861 101.43986,-101.439861 56.02369,0 101.43986,45.416171 101.43986,101.439861 z"
         sodipodi:ry="101.43986"
         sodipodi:rx="101.43986"
         sodipodi:cy="186.58707"
         sodipodi:cx="526.37506"
         id="path4476"
         style="fill:#000000;fill-opacity:1;stroke:#000000;stroke-width:1;stroke-linecap:square;stroke-linejoin:round;stroke-miterlimit:4;stroke-opacity:1;stroke-dasharray:none;stroke-dashoffset:0"
         sodipodi:type="arc" />
      <path
         sodipodi:nodetypes="csssssscsscccccccsscccccccccccccccc"
         inkscape:connector-curvature="0"
         id="path4472-9"
         d="m 593.27811,782.52583 c -19.25,0.15267 -37.7,0.10675 -41,-0.10206 -3.3,-0.20881 -13.65,-1.07253 -23,-1.91938 -9.35,-0.84685 -24.65,-2.67154 -34,-4.05488 -9.35,-1.38333 -23.75,-3.872 -32,-5.53038 -8.25,-1.65837 -20.85,-4.51467 -28,-6.34733 -7.15,-1.83265 -16.15,-4.38529 -20,-5.67252 l -7,-2.34042 0.19859,-11 c 0.10922,-6.05 0.69216,-15.725 1.29542,-21.5 l 1.09684,-10.5 2.96315,-14.80793 2.96315,-14.80793 5.51037,-16.69207 5.51038,-16.69207 7.39579,-15 7.39579,-15 6.90717,-10.5 c 3.79894,-5.775 9.63347,-13.875 12.96561,-18 l 6.05844,-7.5 11.6134,-11.25 11.6134,-11.25 1.15817,0 1.15817,0 9.09808,8.78357 9.09808,8.78357 8.7593,5.81483 8.75931,5.81483 8.74069,3.85548 8.7407,3.85549 9.43729,2.5241 9.43728,2.52411 10.56272,1.13825 17.46599,1.52177 c 1.91173,175.37667 -0.11768,0.79668 -0.90328,175.85097 z"
         style="fill:#030303" />
      <path
         style="fill:#030303"
         d="m 590.99723,782.90935 c 19.25,0.15267 37.7,0.10675 41,-0.10206 3.3,-0.20881 13.65,-1.07253 23,-1.91938 9.35,-0.84685 24.65,-2.67154 34,-4.05488 9.35,-1.38333 23.75,-3.872 32,-5.53038 8.25,-1.65837 20.85,-4.51467 28,-6.34733 7.15,-1.83265 16.15,-4.38529 20,-5.67252 l 7,-2.34042 -0.19859,-11 c -0.10922,-6.05 -0.69216,-15.725 -1.29542,-21.5 l -1.09684,-10.5 -2.96315,-14.80793 -2.96315,-14.80793 -5.51037,-16.69207 -5.51038,-16.69207 -7.39579,-15 -7.39579,-15 -6.90717,-10.5 c -3.79894,-5.775 -9.63347,-13.875 -12.96561,-18 l -6.05844,-7.5 -11.6134,-11.25 -11.6134,-11.25 -1.15817,0 -1.15817,0 -9.09808,8.78357 -9.09808,8.78357 -8.7593,5.81483 -8.75931,5.81483 -8.74069,3.85548 -8.7407,3.85549 -9.43729,2.5241 -9.43728,2.52411 -10.56272,1.13825 -17.46599,1.52177 c -1.91173,175.37667 0.11768,0.79668 0.90328,175.85097 z"
         id="path4496"
         inkscape:connector-curvature="0"
         sodipodi:nodetypes="csssssscsscccccccsscccccccccccccccc" />
    </g>
    <g
       id="g4592"
       transform="matrix(0.29977242,0,0,0.29977242,22.977596,370.63786)">
      <path
         sodipodi:type="arc"
         style="fill:#000000;fill-opacity:1;stroke:#000000;stroke-width:1;stroke-linecap:square;stroke-linejoin:round;stroke-miterlimit:4;stroke-opacity:1;stroke-dasharray:none;stroke-dashoffset:0"
         id="path4594"
         sodipodi:cx="526.37506"
         sodipodi:cy="186.58707"
         sodipodi:rx="101.43986"
         sodipodi:ry="101.43986"
         d="m 627.81492,186.58707 c 0,56.02368 -45.41617,101.43985 -101.43986,101.43985 -56.02369,0 -101.43986,-45.41617 -101.43986,-101.43985 0,-56.02369 45.41617,-101.439861 101.43986,-101.439861 56.02369,0 101.43986,45.416171 101.43986,101.439861 z"
         transform="translate(65.743417,305.39641)" />
      <path
         style="fill:#030303"
         d="m 593.27811,782.52583 c -19.25,0.15267 -37.7,0.10675 -41,-0.10206 -3.3,-0.20881 -13.65,-1.07253 -23,-1.91938 -9.35,-0.84685 -24.65,-2.67154 -34,-4.05488 -9.35,-1.38333 -23.75,-3.872 -32,-5.53038 -8.25,-1.65837 -20.85,-4.51467 -28,-6.34733 -7.15,-1.83265 -16.15,-4.38529 -20,-5.67252 l -7,-2.34042 0.19859,-11 c 0.10922,-6.05 0.69216,-15.725 1.29542,-21.5 l 1.09684,-10.5 2.96315,-14.80793 2.96315,-14.80793 5.51037,-16.69207 5.51038,-16.69207 7.39579,-15 7.39579,-15 6.90717,-10.5 c 3.79894,-5.775 9.63347,-13.875 12.96561,-18 l 6.05844,-7.5 11.6134,-11.25 11.6134,-11.25 1.15817,0 1.15817,0 9.09808,8.78357 9.09808,8.78357 8.7593,5.81483 8.75931,5.81483 8.74069,3.85548 8.7407,3.85549 9.43729,2.5241 9.43728,2.52411 10.56272,1.13825 17.46599,1.52177 c 1.91173,175.37667 -0.11768,0.79668 -0.90328,175.85097 z"
         id="path4596"
         inkscape:connector-curvature="0"
         sodipodi:nodetypes="csssssscsscccccccsscccccccccccccccc" />
      <path
         sodipodi:nodetypes="csssssscsscccccccsscccccccccccccccc"
         inkscape:connector-curvature="0"
         id="path4598"
         d="m 590.99723,782.90935 c 19.25,0.15267 37.7,0.10675 41,-0.10206 3.3,-0.20881 13.65,-1.07253 23,-1.91938 9.35,-0.84685 24.65,-2.67154 34,-4.05488 9.35,-1.38333 23.75,-3.872 32,-5.53038 8.25,-1.65837 20.85,-4.51467 28,-6.34733 7.15,-1.83265 16.15,-4.38529 20,-5.67252 l 7,-2.34042 -0.19859,-11 c -0.10922,-6.05 -0.69216,-15.725 -1.29542,-21.5 l -1.09684,-10.5 -2.96315,-14.80793 -2.96315,-14.80793 -5.51037,-16.69207 -5.51038,-16.69207 -7.39579,-15 -7.39579,-15 -6.90717,-10.5 c -3.79894,-5.775 -9.63347,-13.875 -12.96561,-18 l -6.05844,-7.5 -11.6134,-11.25 -11.6134,-11.25 -1.15817,0 -1.15817,0 -9.09808,8.78357 -9.09808,8.78357 -8.7593,5.81483 -8.75931,5.81483 -8.74069,3.85548 -8.7407,3.85549 -9.43729,2.5241 -9.43728,2.52411 -10.56272,1.13825 -17.46599,1.52177 c -1.91173,175.37667 0.11768,0.79668 0.90328,175.85097 z"
         style="fill:#030303" />
    </g>
    <path
       style="fill:#000000"
       d="m 184.53353,330.19039 c -1.14267,-0.35079 -2.0956,-0.99985 -3.43622,-2.34047 -3.13344,-3.13344 -2.8793,1.56305 -2.8793,-53.21181 0,-54.76844 -0.25339,-50.07913 2.87503,-53.20755 2.94937,-2.94939 2.37364,-2.87504 22.26543,-2.87504 19.89565,0 19.31537,-0.0751 22.26971,2.87931 2.9666,2.85089 3.16159,2.92871 3.19309,4.69506 0.13534,0.53182 0.24603,22.36052 0.24603,48.50822 0,26.14769 -0.11074,47.97639 -0.24603,48.50821 -0.9801,1.51038 -3.51664,5.9943 -6.77267,7.06225 -2.50182,0.74295 -35.08714,0.72717 -37.51507,-0.0182 z m 20.69672,-8.92974 c 1.58547,-0.57444 3.14709,-2.27134 3.60922,-3.92191 1.14635,-4.09435 -2.82945,-8.0723 -6.92255,-6.9263 -3.03914,0.85092 -4.86425,3.98036 -4.03943,6.9263 0.65656,2.34505 3.15408,4.30813 5.48098,4.30813 0.44318,0 1.28549,-0.17381 1.87178,-0.38622 z m 0,-20.62809 c 1.58547,-0.57442 3.14709,-2.27133 3.60922,-3.9219 1.14635,-4.09434 -2.82945,-8.07229 -6.92255,-6.9263 -3.03914,0.85091 -4.86425,3.98037 -4.03943,6.9263 0.65656,2.34506 3.15408,4.30813 5.48098,4.30813 0.44318,0 1.28549,-0.1738 1.87178,-0.38623 z m 13.85713,-41.20767 c 0.26778,-0.26776 0.38677,-1.93388 0.38677,-5.41486 0,-3.48098 -0.11904,-5.1471 -0.38677,-5.41488 -0.55709,-0.55708 -30.90074,-0.55708 -31.45782,0 -0.54145,0.54147 -0.54145,10.28829 0,10.82974 0.55708,0.55709 30.90073,0.55709 31.45782,0 z m 0,-20.62807 c 0.26778,-0.26776 0.38677,-1.93388 0.38677,-5.41486 0,-3.481 -0.11904,-5.14712 -0.38677,-5.41488 -0.55709,-0.55708 -30.90074,-0.55708 -31.45782,0 -0.54145,0.54145 -0.54145,10.28829 0,10.82974 0.55708,0.55708 30.90073,0.55708 31.45782,0 z"
       id="path2989-0"
       inkscape:connector-curvature="0"
       sodipodi:nodetypes="sssssccsccsssssssssssssssssssssssss" />
    <path
       style="fill:none;stroke:#000000;stroke-width:1px;stroke-linecap:butt;stroke-linejoin:miter;stroke-opacity:1;marker-start:url(#Arrow1Mstart);marker-end:url(#Arrow1Mend)"
       d="m 200,342.36218 c 0,140 0,140 0,140"
       id="path4752"
       inkscape:connector-curvature="0" />
    <g
       style="stroke:#000000;stroke-width:39.44353104;stroke-miterlimit:4;stroke-opacity:1;stroke-dasharray:none"
       id="g5384"
       transform="matrix(0.0507054,0,0,0.0507054,381.06082,54.409624)">
      <title
         id="title5386">Layer 1</title>
      <g
         style="stroke:#000000;stroke-width:39.44353104;stroke-miterlimit:4;stroke-opacity:1;stroke-dasharray:none"
         id="g5388">
        <g
           style="stroke:#000000;stroke-width:39.44353104;stroke-miterlimit:4;stroke-opacity:1;stroke-dasharray:none"
           id="g5390">
          <path
             sodipodi:nodetypes="scsscssscscscscsssccs"
             id="path5392"
             d="m 3836.8348,2095.1578 c -732.2124,0 -1344.4922,547.4842 -1536.9326,1295.2865 -80.1119,-53.1238 -178.5029,-83.5777 -277.0421,-83.5777 -304.7364,0 -551.9997,289.9708 -551.9997,647.3413 0,3.6404 -0.052,7.1042 0,10.7294 -91.2851,-21.9322 -186.9957,-34.3341 -286.0641,-34.3341 -604.03117,0 -1094.240027,435.3143 -1094.240231,971.37 0,536.0562 490.209111,971.3701 1094.240231,971.3701 239.2406,0 460.2956,-68.8038 640.4417,-184.5459 107.5895,377.4956 411.2028,650.2027 769.14,650.2027 242.5458,0 460.0323,-125.2356 608.7247,-323.313 144.2511,88.4898 298.9465,154.3573 495.2748,139.4821 246.1456,-18.6495 472.023,-94.1465 641.0522,-248.9221 227.7688,277.2216 592.2635,472.2673 965.84,472.2673 458.2995,0 829.2678,-283.9343 1044.5367,-676.1265 32.4074,5.5692 65.6551,8.5836 99.4208,8.5836 364.5952,0 659.9608,-336.2542 659.9608,-751.0595 0,-414.8045 -295.3656,-751.7746 -659.9608,-751.7746 -65.2407,0 -128.3234,11.3954 -187.8629,31.473 -154.6632,-293.2461 -490.1975,-459.867 -825.8642,-505.713 -130.2304,-899.3731 -758.265,-1638.7398 -1598.6653,-1638.7396 z"
             stroke-miterlimit="4"
             inkscape:connector-curvature="0"
             style="fill:#ffffff;fill-rule:nonzero;stroke:#000000;stroke-width:33.58841324;stroke-miterlimit:4;stroke-opacity:1;stroke-dasharray:none;stroke-dashoffset:0" />
        </g>
      </g>
    </g>
    <path
       style="fill:#474747;fill-opacity:1"
       d="m 518.68547,311.05495 c -1.14267,-0.35079 -2.0956,-0.99985 -3.43622,-2.34047 -3.13344,-3.13344 -2.8793,1.56305 -2.8793,-53.21181 0,-54.76844 -0.25339,-50.07913 2.87503,-53.20755 2.94937,-2.94939 2.37364,-2.87504 22.26543,-2.87504 19.89565,0 19.31537,-0.0751 22.26971,2.87931 2.9666,2.85089 3.16159,2.92871 3.19309,4.69506 0.13534,0.53182 0.24603,22.36052 0.24603,48.50822 0,26.14769 -0.11074,47.97639 -0.24603,48.50821 -0.9801,1.51038 -3.51664,5.9943 -6.77267,7.06225 -2.50182,0.74295 -35.08714,0.72717 -37.51507,-0.0182 z m 20.69672,-8.92974 c 1.58547,-0.57444 3.14709,-2.27134 3.60922,-3.92191 1.14635,-4.09435 -2.82945,-8.0723 -6.92255,-6.9263 -3.03914,0.85092 -4.86425,3.98036 -4.03943,6.9263 0.65656,2.34505 3.15408,4.30813 5.48098,4.30813 0.44318,0 1.28549,-0.17381 1.87178,-0.38622 z m 0,-20.62809 c 1.58547,-0.57442 3.14709,-2.27133 3.60922,-3.9219 1.14635,-4.09434 -2.82945,-8.07229 -6.92255,-6.9263 -3.03914,0.85091 -4.86425,3.98037 -4.03943,6.9263 0.65656,2.34506 3.15408,4.30813 5.48098,4.30813 0.44318,0 1.28549,-0.1738 1.87178,-0.38623 z m 13.85713,-41.20767 c 0.26778,-0.26776 0.38677,-1.93388 0.38677,-5.41486 0,-3.48098 -0.11904,-5.1471 -0.38677,-5.41488 -0.55709,-0.55708 -30.90074,-0.55708 -31.45782,0 -0.54145,0.54147 -0.54145,10.28829 0,10.82974 0.55708,0.55709 30.90073,0.55709 31.45782,0 z m 0,-20.62807 c 0.26778,-0.26776 0.38677,-1.93388 0.38677,-5.41486 0,-3.481 -0.11904,-5.14712 -0.38677,-5.41488 -0.55709,-0.55708 -30.90074,-0.55708 -31.45782,0 -0.54145,0.54145 -0.54145,10.28829 0,10.82974 0.55708,0.55708 30.90073,0.55708 31.45782,0 z"
       id="path5408"
       inkscape:connector-curvature="0"
       sodipodi:nodetypes="sssssccsccsssssssssssssssssssssssss" />
    <path
       style="fill:#a4a4a4;fill-opacity:1"
       d="m 586.91023,311.88359 c -1.14267,-0.35079 -2.0956,-0.99985 -3.43622,-2.34047 -3.13344,-3.13344 -2.8793,1.56305 -2.8793,-53.21181 0,-54.76844 -0.25339,-50.07913 2.87503,-53.20755 2.94937,-2.94939 2.37364,-2.87504 22.26543,-2.87504 19.89565,0 19.31537,-0.0751 22.26971,2.87931 2.9666,2.85089 3.16159,2.92871 3.19309,4.69506 0.13534,0.53182 0.24603,22.36052 0.24603,48.50822 0,26.14769 -0.11074,47.97639 -0.24603,48.50821 -0.9801,1.51038 -3.51664,5.9943 -6.77267,7.06225 -2.50182,0.74295 -35.08714,0.72717 -37.51507,-0.0182 z m 20.69672,-8.92974 c 1.58547,-0.57444 3.14709,-2.27134 3.60922,-3.92191 1.14635,-4.09435 -2.82945,-8.0723 -6.92255,-6.9263 -3.03914,0.85092 -4.86425,3.98036 -4.03943,6.9263 0.65656,2.34505 3.15408,4.30813 5.48098,4.30813 0.44318,0 1.28549,-0.17381 1.87178,-0.38622 z m 0,-20.62809 c 1.58547,-0.57442 3.14709,-2.27133 3.60922,-3.9219 1.14635,-4.09434 -2.82945,-8.07229 -6.92255,-6.9263 -3.03914,0.85091 -4.86425,3.98037 -4.03943,6.9263 0.65656,2.34506 3.15408,4.30813 5.48098,4.30813 0.44318,0 1.28549,-0.1738 1.87178,-0.38623 z m 13.85713,-41.20767 c 0.26778,-0.26776 0.38677,-1.93388 0.38677,-5.41486 0,-3.48098 -0.11904,-5.1471 -0.38677,-5.41488 -0.55709,-0.55708 -30.90074,-0.55708 -31.45782,0 -0.54145,0.54147 -0.54145,10.28829 0,10.82974 0.55708,0.55709 30.90073,0.55709 31.45782,0 z m 0,-20.62807 c 0.26778,-0.26776 0.38677,-1.93388 0.38677,-5.41486 0,-3.481 -0.11904,-5.14712 -0.38677,-5.41488 -0.55709,-0.55708 -30.90074,-0.55708 -31.45782,0 -0.54145,0.54145 -0.54145,10.28829 0,10.82974 0.55708,0.55708 30.90073,0.55708 31.45782,0 z"
       id="path5406"
       inkscape:connector-curvature="0"
       sodipodi:nodetypes="sssssccsccsssssssssssssssssssssssss" />
    <path
       sodipodi:nodetypes="sssssccsccsssssssssssssssssssssssss"
       inkscape:connector-curvature="0"
       id="path5402"
       d="m 554.86945,336.19039 c -1.14267,-0.35079 -2.0956,-0.99985 -3.43622,-2.34047 -3.13344,-3.13344 -2.8793,1.56305 -2.8793,-53.21181 0,-54.76844 -0.25339,-50.07913 2.87503,-53.20755 2.94937,-2.94939 2.37364,-2.87504 22.26543,-2.87504 19.89565,0 19.31537,-0.0751 22.26971,2.87931 2.9666,2.85089 3.16159,2.92871 3.19309,4.69506 0.13534,0.53182 0.24603,22.36052 0.24603,48.50822 0,26.14769 -0.11074,47.97639 -0.24603,48.50821 -0.9801,1.51038 -3.51664,5.9943 -6.77267,7.06225 -2.50182,0.74295 -35.08714,0.72717 -37.51507,-0.0182 z m 20.69672,-8.92974 c 1.58547,-0.57444 3.14709,-2.27134 3.60922,-3.92191 1.14635,-4.09435 -2.82945,-8.0723 -6.92255,-6.9263 -3.03914,0.85092 -4.86425,3.98036 -4.03943,6.9263 0.65656,2.34505 3.15408,4.30813 5.48098,4.30813 0.44318,0 1.28549,-0.17381 1.87178,-0.38622 z m 0,-20.62809 c 1.58547,-0.57442 3.14709,-2.27133 3.60922,-3.9219 1.14635,-4.09434 -2.82945,-8.07229 -6.92255,-6.9263 -3.03914,0.85091 -4.86425,3.98037 -4.03943,6.9263 0.65656,2.34506 3.15408,4.30813 5.48098,4.30813 0.44318,0 1.28549,-0.1738 1.87178,-0.38623 z m 13.85713,-41.20767 c 0.26778,-0.26776 0.38677,-1.93388 0.38677,-5.41486 0,-3.48098 -0.11904,-5.1471 -0.38677,-5.41488 -0.55709,-0.55708 -30.90074,-0.55708 -31.45782,0 -0.54145,0.54147 -0.54145,10.28829 0,10.82974 0.55708,0.55709 30.90073,0.55709 31.45782,0 z m 0,-20.62807 c 0.26778,-0.26776 0.38677,-1.93388 0.38677,-5.41486 0,-3.481 -0.11904,-5.14712 -0.38677,-5.41488 -0.55709,-0.55708 -30.90074,-0.55708 -31.45782,0 -0.54145,0.54145 -0.54145,10.28829 0,10.82974 0.55708,0.55708 30.90073,0.55708 31.45782,0 z"
       style="fill:#000000" />
    <path
       inkscape:connector-curvature="0"
       id="path5404"
       d="m 572.33592,342.36218 c 0,140 0,140 0,140"
       style="fill:none;stroke:#000000;stroke-width:1px;stroke-linecap:butt;stroke-linejoin:miter;stroke-opacity:1;marker-start:url(#Arrow1Mstart);marker-end:url(#Arrow1Mend)" />
    <path
       style="fill:none;stroke:#000000;stroke-width:30;stroke-linecap:butt;stroke-linejoin:miter;stroke-miterlimit:4;stroke-opacity:1;stroke-dasharray:none;marker-end:url(#Arrow1Send)"
       d="m 267.96875,175.01843 c 80.65201,-52.44406 131.39832,-40.277 214.0625,3.125"
       id="path5410"
       inkscape:connector-curvature="0"
       sodipodi:nodetypes="cc" />
    <text
       xml:space="preserve"
       style="font-size:40px;font-style:normal;font-weight:normal;line-height:125%;letter-spacing:0px;word-spacing:0px;fill:#e2e2e2;fill-opacity:1;stroke:none;font-family:Sans"
       id="text5784"
       sodipodi:linespacing="125%"
       transform="matrix(0.99776982,0.06674867,-0.06674867,0.99776982,25.316849,-17.140408)"><textPath
         xlink:href="#path5410"
         id="textPath5788"
         style="font-size:25px;font-weight:bold;fill:#e2e2e2;fill-opacity:1;-inkscape-font-specification:Sans Bold">g<tspan
   style="font-size:23px"
   id="tspan5011">row c</tspan>luster</textPath></text>
    <path
       sodipodi:nodetypes="cc"
       inkscape:connector-curvature="0"
       id="path5791"
       d="M 517.84571,363.75094 C 437.1937,416.195 375.90051,407.15295 297.14258,363.36032"
       style="fill:none;stroke:#000000;stroke-width:30;stroke-linecap:butt;stroke-linejoin:miter;stroke-miterlimit:4;stroke-opacity:1;stroke-dasharray:none;marker-end:url(#Arrow1Send)" />
    <path
       style="fill:none;stroke:none"
       d="m 317.27125,415.2461 c 75.53643,51.5442 165.07619,-3.19778 165.07619,-3.19778"
       id="path5800"
       inkscape:connector-curvature="0"
       sodipodi:nodetypes="cc" />
    <text
       xml:space="preserve"
       style="font-size:40px;font-style:normal;font-weight:normal;line-height:125%;letter-spacing:0px;word-spacing:0px;fill:#000000;fill-opacity:1;stroke:none;font-family:Sans"
       id="text5857"
       sodipodi:linespacing="125%"
       transform="translate(18.789063,-28.609376)"><textPath
         xlink:href="#path5800"
         id="textPath5865"
         style="font-size:23px;font-weight:bold;fill:#c1c1c1;fill-opacity:1;-inkscape-font-specification:Sans Bold">shrink cluster</textPath></text>
  </g>
</svg>
